<mxfile host="Electron" agent="Mozilla/5.0 (Windows NT 10.0; Win64; x64) AppleWebKit/537.36 (KHTML, like Gecko) draw.io/24.7.17 Chrome/128.0.6613.36 Electron/32.0.1 Safari/537.36" version="24.7.17">
  <diagram id="C5RBs43oDa-KdzZeNtuy" name="Page-1">
    <mxGraphModel dx="472" dy="827" grid="1" gridSize="10" guides="1" tooltips="1" connect="1" arrows="1" fold="1" page="1" pageScale="1" pageWidth="827" pageHeight="1169" math="0" shadow="0">
      <root>
        <mxCell id="WIyWlLk6GJQsqaUBKTNV-0" />
        <mxCell id="WIyWlLk6GJQsqaUBKTNV-1" parent="WIyWlLk6GJQsqaUBKTNV-0" />
        <mxCell id="k3k7oLFDGJno1THqTPzg-7" style="rounded=0;orthogonalLoop=1;jettySize=auto;html=1;endArrow=block;endFill=1;strokeWidth=2;" edge="1" parent="WIyWlLk6GJQsqaUBKTNV-1" source="k3k7oLFDGJno1THqTPzg-0" target="k3k7oLFDGJno1THqTPzg-1">
          <mxGeometry relative="1" as="geometry" />
        </mxCell>
        <mxCell id="k3k7oLFDGJno1THqTPzg-0" value="&lt;font style=&quot;font-size: 21px;&quot;&gt;1&lt;/font&gt;" style="rounded=0;whiteSpace=wrap;html=1;" vertex="1" parent="WIyWlLk6GJQsqaUBKTNV-1">
          <mxGeometry x="160" y="40" width="40" height="50" as="geometry" />
        </mxCell>
        <mxCell id="k3k7oLFDGJno1THqTPzg-10" style="rounded=0;orthogonalLoop=1;jettySize=auto;html=1;entryX=0.5;entryY=0;entryDx=0;entryDy=0;endArrow=block;endFill=1;strokeWidth=2;" edge="1" parent="WIyWlLk6GJQsqaUBKTNV-1" source="k3k7oLFDGJno1THqTPzg-1" target="k3k7oLFDGJno1THqTPzg-2">
          <mxGeometry relative="1" as="geometry" />
        </mxCell>
        <mxCell id="k3k7oLFDGJno1THqTPzg-18" style="edgeStyle=orthogonalEdgeStyle;shape=connector;rounded=0;orthogonalLoop=1;jettySize=auto;html=1;entryX=0.5;entryY=0;entryDx=0;entryDy=0;strokeColor=default;strokeWidth=2;align=center;verticalAlign=middle;fontFamily=Helvetica;fontSize=11;fontColor=default;labelBackgroundColor=default;endArrow=block;endFill=1;" edge="1" parent="WIyWlLk6GJQsqaUBKTNV-1" source="k3k7oLFDGJno1THqTPzg-1" target="k3k7oLFDGJno1THqTPzg-5">
          <mxGeometry relative="1" as="geometry" />
        </mxCell>
        <mxCell id="k3k7oLFDGJno1THqTPzg-1" value="&lt;font style=&quot;font-size: 21px;&quot;&gt;2&lt;/font&gt;" style="rounded=0;whiteSpace=wrap;html=1;" vertex="1" parent="WIyWlLk6GJQsqaUBKTNV-1">
          <mxGeometry x="160" y="120" width="40" height="50" as="geometry" />
        </mxCell>
        <mxCell id="k3k7oLFDGJno1THqTPzg-13" value="" style="edgeStyle=none;shape=connector;rounded=0;orthogonalLoop=1;jettySize=auto;html=1;strokeColor=default;strokeWidth=2;align=center;verticalAlign=middle;fontFamily=Helvetica;fontSize=11;fontColor=default;labelBackgroundColor=default;endArrow=block;endFill=1;exitX=0.25;exitY=1;exitDx=0;exitDy=0;" edge="1" parent="WIyWlLk6GJQsqaUBKTNV-1" source="k3k7oLFDGJno1THqTPzg-2" target="k3k7oLFDGJno1THqTPzg-4">
          <mxGeometry relative="1" as="geometry" />
        </mxCell>
        <mxCell id="k3k7oLFDGJno1THqTPzg-14" style="edgeStyle=none;shape=connector;rounded=0;orthogonalLoop=1;jettySize=auto;html=1;entryX=0.5;entryY=0;entryDx=0;entryDy=0;strokeColor=default;strokeWidth=2;align=center;verticalAlign=middle;fontFamily=Helvetica;fontSize=11;fontColor=default;labelBackgroundColor=default;endArrow=block;endFill=1;" edge="1" parent="WIyWlLk6GJQsqaUBKTNV-1" source="k3k7oLFDGJno1THqTPzg-2" target="k3k7oLFDGJno1THqTPzg-3">
          <mxGeometry relative="1" as="geometry" />
        </mxCell>
        <mxCell id="k3k7oLFDGJno1THqTPzg-2" value="&lt;font style=&quot;font-size: 21px;&quot;&gt;3&lt;/font&gt;" style="rounded=0;whiteSpace=wrap;html=1;" vertex="1" parent="WIyWlLk6GJQsqaUBKTNV-1">
          <mxGeometry x="160" y="200" width="40" height="50" as="geometry" />
        </mxCell>
        <mxCell id="k3k7oLFDGJno1THqTPzg-15" style="edgeStyle=none;shape=connector;rounded=0;orthogonalLoop=1;jettySize=auto;html=1;entryX=0.75;entryY=0;entryDx=0;entryDy=0;strokeColor=default;strokeWidth=2;align=center;verticalAlign=middle;fontFamily=Helvetica;fontSize=11;fontColor=default;labelBackgroundColor=default;endArrow=block;endFill=1;" edge="1" parent="WIyWlLk6GJQsqaUBKTNV-1" source="k3k7oLFDGJno1THqTPzg-3" target="k3k7oLFDGJno1THqTPzg-4">
          <mxGeometry relative="1" as="geometry" />
        </mxCell>
        <mxCell id="k3k7oLFDGJno1THqTPzg-3" value="&lt;font style=&quot;font-size: 21px;&quot;&gt;4&lt;/font&gt;" style="rounded=0;whiteSpace=wrap;html=1;" vertex="1" parent="WIyWlLk6GJQsqaUBKTNV-1">
          <mxGeometry x="200" y="280" width="40" height="50" as="geometry" />
        </mxCell>
        <mxCell id="k3k7oLFDGJno1THqTPzg-17" style="edgeStyle=orthogonalEdgeStyle;shape=connector;rounded=0;orthogonalLoop=1;jettySize=auto;html=1;entryX=0;entryY=0.5;entryDx=0;entryDy=0;strokeColor=default;strokeWidth=2;align=center;verticalAlign=middle;fontFamily=Helvetica;fontSize=11;fontColor=default;labelBackgroundColor=default;endArrow=block;endFill=1;" edge="1" parent="WIyWlLk6GJQsqaUBKTNV-1" source="k3k7oLFDGJno1THqTPzg-4" target="k3k7oLFDGJno1THqTPzg-1">
          <mxGeometry relative="1" as="geometry">
            <Array as="points">
              <mxPoint x="170" y="430" />
              <mxPoint x="120" y="430" />
              <mxPoint x="120" y="145" />
            </Array>
          </mxGeometry>
        </mxCell>
        <mxCell id="k3k7oLFDGJno1THqTPzg-4" value="&lt;font style=&quot;font-size: 21px;&quot;&gt;5&lt;/font&gt;" style="rounded=0;whiteSpace=wrap;html=1;" vertex="1" parent="WIyWlLk6GJQsqaUBKTNV-1">
          <mxGeometry x="150" y="360" width="40" height="50" as="geometry" />
        </mxCell>
        <mxCell id="k3k7oLFDGJno1THqTPzg-5" value="&lt;font style=&quot;font-size: 21px;&quot;&gt;6&lt;/font&gt;" style="rounded=0;whiteSpace=wrap;html=1;" vertex="1" parent="WIyWlLk6GJQsqaUBKTNV-1">
          <mxGeometry x="320" y="200" width="40" height="50" as="geometry" />
        </mxCell>
        <mxCell id="k3k7oLFDGJno1THqTPzg-11" value="&lt;div style=&quot;&quot;&gt;&lt;pre style=&quot;line-height: 0%;&quot;&gt;&lt;font style=&quot;font-size: 14px;&quot; face=&quot;Times New Roman&quot;&gt;for(int i = 0; i &amp;lt; str.length(); i++)&lt;/font&gt;&lt;/pre&gt;&lt;/div&gt;" style="text;html=1;align=center;verticalAlign=middle;whiteSpace=wrap;rounded=0;fontFamily=Helvetica;fontSize=11;fontColor=default;labelBackgroundColor=default;" vertex="1" parent="WIyWlLk6GJQsqaUBKTNV-1">
          <mxGeometry x="270" y="110" width="60" height="30" as="geometry" />
        </mxCell>
        <mxCell id="k3k7oLFDGJno1THqTPzg-12" value="&lt;div style=&quot;&quot;&gt;&lt;pre style=&quot;font-size: 14px; line-height: 0%;&quot;&gt;&lt;font style=&quot;font-size: 14px; background-color: rgb(255, 255, 255);&quot; face=&quot;Times New Roman&quot;&gt;if(str[i] == &#39;?&#39;)&lt;/font&gt;&lt;/pre&gt;&lt;/div&gt;" style="text;html=1;align=center;verticalAlign=middle;whiteSpace=wrap;rounded=0;fontFamily=Helvetica;fontSize=11;fontColor=default;labelBackgroundColor=default;" vertex="1" parent="WIyWlLk6GJQsqaUBKTNV-1">
          <mxGeometry x="220" y="210" width="60" height="30" as="geometry" />
        </mxCell>
      </root>
    </mxGraphModel>
  </diagram>
</mxfile>
